<svg xmlns="http://www.w3.org/2000/svg" width="212" height="214" viewBox="0 0 212 214">
  <defs>
    <style>
      .cls-1 {
        fill: #000429;
      }

      .cls-2 {
        fill: #d6cfff;
      }

      .cls-3 {
        fill: #fff;
        font-size: 16px;
        font-family: Montserrat-SemiBold, Montserrat;
        font-weight: 600;
      }
    </style>
  </defs>
  <g id="logo2" transform="translate(-505.5 -589)">
    <ellipse id="Ellipse_2" data-name="Ellipse 2" class="cls-1" cx="106" cy="107" rx="106" ry="107" transform="translate(505.5 589)"/>
    <g id="Group_4" data-name="Group 4" transform="translate(39.5 -77)">
      <g id="_02_Website_building" data-name="02 Website building" transform="translate(544 728)">
        <path id="Path_44" data-name="Path 44" class="cls-2" d="M44,31.3a2.6,2.6,0,1,0,2.6,2.6A2.6,2.6,0,0,0,44,31.3Zm0,3.535a.39.39,0,1,1,0,.005Zm0,0" transform="translate(-36.873 -27.88)"/>
        <path id="Path_45" data-name="Path 45" class="cls-2" d="M107.62,31.3a2.6,2.6,0,1,0,2.6,2.6,2.6,2.6,0,0,0-2.6-2.6Zm0,3.535a.389.389,0,1,1,0,.005Zm0,0" transform="translate(-93.535 -27.88)"/>
        <path id="Path_46" data-name="Path 46" class="cls-2" d="M171.244,31.3a2.6,2.6,0,1,0,2.6,2.6,2.6,2.6,0,0,0-2.6-2.6Zm0,3.535a.389.389,0,1,1,0,.005Zm0,0" transform="translate(-150.199 -27.88)"/>
        <path id="Path_47" data-name="Path 47" class="cls-2" d="M52.972,0H3.038A3.041,3.041,0,0,0,0,3.038V39.6a3.041,3.041,0,0,0,3.038,3.038H8.383a.828.828,0,0,0,.068,1.1l3.981,3.981A16.985,16.985,0,0,0,11.65,49.6H6.021a.828.828,0,0,0-.828.829V55.18a.828.828,0,0,0,.828.829h16.35a.829.829,0,0,0,.829-.829,4.585,4.585,0,1,1,9.169,0,.829.829,0,0,0,.829.829h16.35a.829.829,0,0,0,.829-.829V50.431a.829.829,0,0,0-.829-.829h-5.63a16.985,16.985,0,0,0-.782-1.884l3.981-3.981a.829.829,0,0,0,.067-1.1h5.787A3.041,3.041,0,0,0,56.009,39.6V19.1a.829.829,0,1,0-1.657,0V39.6a1.382,1.382,0,0,1-1.381,1.381H45.537L40.654,36.1V30.435a.829.829,0,0,0-.829-.829H38.334V24.5L39.5,23.421a.829.829,0,0,0,.229-.855L37.744,16.16a.829.829,0,0,0-.791-.583h-2.21a.829.829,0,0,0-.791.583l-1.988,6.407a.829.829,0,0,0,.229.855l1.17,1.079v5.106H31.871a.829.829,0,0,0-.829.829V32.59H24.525V31.331l3.182-3.182a.828.828,0,0,0,.243-.586V20.769a.828.828,0,0,0-.247-.589l-4.418-4.364a.829.829,0,0,0-1.411.589v7.386L19.72,25.147l-2.154-1.356v-.472a.829.829,0,1,0-1.657,0v.929a.828.828,0,0,0,.387.7l2.983,1.878a.828.828,0,0,0,.883,0l2.983-1.878a.828.828,0,0,0,.387-.7v-5.86l2.762,2.727v6.1L23.11,30.4a.829.829,0,0,0-.243.586V32.6a.829.829,0,0,0-.663.812v5.629a16.992,16.992,0,0,0-1.884.781l-3.75-3.75V30.988a.829.829,0,0,0-.243-.586L13.145,27.22v-6.1l2.762-2.727v1.051a.829.829,0,1,0,1.657,0V16.405a.829.829,0,0,0-1.411-.59l-4.419,4.364a.828.828,0,0,0-.246.589v6.794a.828.828,0,0,0,.243.586l3.182,3.182V36.1L10.03,40.985H3.038A1.382,1.382,0,0,1,1.657,39.6V12.041h52.7v3.206a.829.829,0,0,0,1.657,0V3.038A3.041,3.041,0,0,0,52.972,0ZM34.753,23.53,33.7,22.559l1.653-5.325h.988L38,22.559l-1.052.971a.829.829,0,0,0-.267.609v5.468H35.02V24.138A.83.83,0,0,0,34.753,23.53ZM39,31.264v4.815l-3.75,3.75a17.075,17.075,0,0,0-1.884-.782V33.418a.829.829,0,0,0-.663-.812V31.264ZM20.55,41.571a15.346,15.346,0,0,1,2.725-1.13.829.829,0,0,0,.586-.793v-5.4H31.7v5.4a.829.829,0,0,0,.587.793,15.346,15.346,0,0,1,2.725,1.13.829.829,0,0,0,.976-.145L39.813,37.6l4.8,4.8h0l.751.751-3.821,3.821a.829.829,0,0,0-.145.976,15.319,15.319,0,0,1,1.13,2.725.829.829,0,0,0,.792.586h5.4v3.093h-8.42a12.545,12.545,0,0,0-17.608-10.63.829.829,0,0,0,.674,1.514,10.888,10.888,0,0,1,15.273,9.116H33.971a6.242,6.242,0,0,0-12.373,0H16.933a10.765,10.765,0,0,1,3.409-7.111.829.829,0,0,0-1.133-1.209,12.592,12.592,0,0,0-3.935,8.32H6.849V51.259h5.4a.829.829,0,0,0,.793-.586,15.319,15.319,0,0,1,1.13-2.725.829.829,0,0,0-.145-.976l-3.821-3.821.751-.751h0l4.794-4.795,3.821,3.821a.829.829,0,0,0,.978.145ZM1.657,10.384V3.038A1.382,1.382,0,0,1,3.038,1.657H52.972a1.382,1.382,0,0,1,1.381,1.381v7.346Zm0,0"/>
      </g>
      <text id="development_" data-name="development " class="cls-3" transform="translate(516 815)"><tspan x="0" y="0">development </tspan></text>
    </g>
  </g>
</svg>
