<svg xmlns="http://www.w3.org/2000/svg" width="212" height="214" viewBox="0 0 212 214">
  <defs>
    <style>
      .cls-1 {
        fill: #000429;
      }

      .cls-2 {
        fill: #d6cfff;
      }

      .cls-3 {
        fill: #fff;
        font-size: 16px;
        font-family: Montserrat-SemiBold, Montserrat;
        font-weight: 600;
      }
    </style>
  </defs>
  <g id="logo3" transform="translate(-694.5 -589)">
    <ellipse id="Ellipse_3" data-name="Ellipse 3" class="cls-1" cx="106" cy="107" rx="106" ry="107" transform="translate(694.5 589)"/>
    <g id="Group_5" data-name="Group 5" transform="translate(-26.5 -76)">
      <g id="_03_Monthly_updates" data-name="03 Monthly updates" transform="translate(798 727)">
        <path id="Path_93" data-name="Path 93" class="cls-2" d="M43.959,30.283V26.907a9.787,9.787,0,0,0,1.586-.659l2.393,2.391a.976.976,0,0,0,1.381,0l2.765-2.765a.976.976,0,0,0,0-1.381L49.693,22.1a9.787,9.787,0,0,0,.659-1.586h3.376a.977.977,0,0,0,.977-.977V15.63a.977.977,0,0,0-.977-.977H50.352a9.787,9.787,0,0,0-.659-1.586l2.391-2.393a.976.976,0,0,0,0-1.381L49.319,6.529a.945.945,0,0,0-.476-.245V2.931A2.931,2.931,0,0,0,45.913,0H2.931A2.931,2.931,0,0,0,0,2.931V45.913a2.931,2.931,0,0,0,2.931,2.931h14.1a.945.945,0,0,0,.245.476l2.765,2.765a.976.976,0,0,0,1.381,0l2.393-2.391a9.787,9.787,0,0,0,1.586.659v3.376a.977.977,0,0,0,.977.977h3.907a.977.977,0,0,0,.977-.977V49.82a.977.977,0,0,0-1.954,0v2.931H27.352V49.6a.976.976,0,0,0-.757-.951,7.935,7.935,0,0,1-2.424-1.008.977.977,0,0,0-1.213.136l-2.23,2.234L19.34,48.628l.071-.07L21.576,46.4a.977.977,0,0,0,.136-1.213A7.931,7.931,0,0,1,20.7,42.765a.976.976,0,0,0-.951-.76H16.607V40.052h3.146A.976.976,0,0,0,20.7,39.3a7.936,7.936,0,0,1,1.008-2.424.977.977,0,0,0-.136-1.213l-2.234-2.23L20.73,32.04l2.227,2.234a.977.977,0,0,0,1.213.136,7.931,7.931,0,0,1,2.423-1.01.976.976,0,0,0,.76-.951V29.306h1.954v3.146a.976.976,0,0,0,.757.951,7.936,7.936,0,0,1,2.424,1.008.978.978,0,0,0,1.044-1.653,9.737,9.737,0,0,0-2.27-1.053V28.329a.977.977,0,0,0-.977-.977H26.376a.977.977,0,0,0-.977.977V31.7a9.787,9.787,0,0,0-1.586.659L21.42,29.973a.976.976,0,0,0-1.381,0l-2.765,2.765a.976.976,0,0,0,0,1.381l2.391,2.393a9.787,9.787,0,0,0-.659,1.586H15.63a.977.977,0,0,0-.977.977v3.907a.977.977,0,0,0,.977.977h3.376a9.787,9.787,0,0,0,.659,1.586L18.321,46.89H2.931a.977.977,0,0,1-.977-.977V9.769H29.728a.961.961,0,0,0,.245.9l2.391,2.393a9.787,9.787,0,0,0-.659,1.586H28.329a.977.977,0,0,0-.977.977v3.907a.977.977,0,0,0,.977.977H31.7a9.787,9.787,0,0,0,.659,1.586l-2.391,2.393a.976.976,0,0,0,0,1.381l2.765,2.765a.976.976,0,0,0,1.381,0l2.393-2.391a9.787,9.787,0,0,0,1.586.659v3.376a.977.977,0,0,0,.977.977h3.907a.977.977,0,0,0,.977-.977Zm-42-27.352a.977.977,0,0,1,.977-.977H45.913a.977.977,0,0,1,.977.977V7.576L45.546,8.92a9.787,9.787,0,0,0-1.586-.659V4.884a.977.977,0,0,0-.977-.977H39.075a.977.977,0,0,0-.977.977V8.26a9.787,9.787,0,0,0-1.586.659l-2.393-2.39a.976.976,0,0,0-1.381,0L31.455,7.815H1.954ZM42.762,25.209a.976.976,0,0,0-.757.951v3.146H40.052V26.16a.976.976,0,0,0-.757-.951A7.936,7.936,0,0,1,36.871,24.2a.977.977,0,0,0-1.213.136l-2.23,2.234L32.04,25.182l2.234-2.227a.977.977,0,0,0,.136-1.213A7.931,7.931,0,0,1,33.4,19.32a.976.976,0,0,0-.951-.76H29.306V16.607h3.146a.976.976,0,0,0,.951-.757,7.935,7.935,0,0,1,1.008-2.424.977.977,0,0,0-.136-1.213l-2.234-2.23L33.429,8.6l2.227,2.234a.977.977,0,0,0,1.213.136,7.931,7.931,0,0,1,2.424-1.008.976.976,0,0,0,.76-.951V5.861h1.954V9.007a.976.976,0,0,0,.757.951,7.936,7.936,0,0,1,2.424,1.008A.977.977,0,0,0,46.4,10.83L48.628,8.6l1.388,1.388-2.234,2.227a.977.977,0,0,0-.136,1.213,7.931,7.931,0,0,1,1.008,2.424.976.976,0,0,0,.951.76h3.146v1.954H49.6a.976.976,0,0,0-.951.757,7.936,7.936,0,0,1-1.008,2.424.977.977,0,0,0,.136,1.213l2.234,2.23-1.388,1.388L46.4,24.337a.977.977,0,0,0-1.213-.136A7.923,7.923,0,0,1,42.762,25.209Zm0,0"/>
        <path id="Path_94" data-name="Path 94" class="cls-2" d="M282.376,266.746H279a9.793,9.793,0,0,0-.659-1.586l2.391-2.393a.976.976,0,0,0,0-1.381l-2.765-2.765a.976.976,0,0,0-1.381,0l-2.393,2.391a9.786,9.786,0,0,0-1.586-.659v-3.376a.977.977,0,0,0-.977-.977h-3.907a.977.977,0,0,0-.977.977v3.376a9.787,9.787,0,0,0-1.586.659l-2.393-2.391a.976.976,0,0,0-1.381,0l-2.765,2.765a.976.976,0,0,0,0,1.381l2.391,2.393a9.789,9.789,0,0,0-.659,1.586h-3.376a.977.977,0,0,0-.977.977v3.907a.977.977,0,0,0,.977.977h3.376a9.788,9.788,0,0,0,.659,1.586l-2.391,2.393a.976.976,0,0,0,0,1.381l2.765,2.765a.976.976,0,0,0,1.381,0l2.393-2.391a9.786,9.786,0,0,0,1.586.659v3.376a.977.977,0,0,0,.977.977h3.907a.977.977,0,0,0,.977-.977V279a9.787,9.787,0,0,0,1.586-.659l2.393,2.391a.976.976,0,0,0,1.381,0l2.765-2.765a.976.976,0,0,0,0-1.381l-2.391-2.393a9.793,9.793,0,0,0,.659-1.586h3.376a.977.977,0,0,0,.977-.977v-3.907a.977.977,0,0,0-.977-.977Zm-.977,3.908h-3.146a.976.976,0,0,0-.951.757,7.936,7.936,0,0,1-1.008,2.424.977.977,0,0,0,.136,1.213l2.234,2.23-1.388,1.388-2.227-2.234a.977.977,0,0,0-1.213-.136,7.932,7.932,0,0,1-2.424,1.008.976.976,0,0,0-.76.951V281.4H268.7v-3.146a.976.976,0,0,0-.757-.951,7.936,7.936,0,0,1-2.424-1.008.977.977,0,0,0-1.213.136l-2.23,2.234-1.388-1.388,2.234-2.227a.977.977,0,0,0,.136-1.212,7.93,7.93,0,0,1-1.008-2.424.976.976,0,0,0-.951-.76h-3.146V268.7H261.1a.976.976,0,0,0,.951-.757,7.936,7.936,0,0,1,1.008-2.424.977.977,0,0,0-.136-1.212l-2.234-2.23,1.388-1.388,2.227,2.234a.977.977,0,0,0,1.212.136,7.929,7.929,0,0,1,2.424-1.008.976.976,0,0,0,.76-.951v-3.146h1.954V261.1a.976.976,0,0,0,.757.951,7.936,7.936,0,0,1,2.424,1.008.977.977,0,0,0,1.213-.136l2.23-2.234,1.388,1.388-2.234,2.227a.977.977,0,0,0-.136,1.212,7.934,7.934,0,0,1,1.008,2.424.977.977,0,0,0,.951.76H281.4Zm0,0" transform="translate(-224.74 -224.74)"/>
        <path id="Path_95" data-name="Path 95" class="cls-2" d="M26.931,32H24.977a.977.977,0,0,0,0,1.954h1.954a.977.977,0,1,0,0-1.954Zm0,0" transform="translate(-21.069 -28.093)"/>
        <path id="Path_96" data-name="Path 96" class="cls-2" d="M67.907,32h-2.93a.977.977,0,0,0,0,1.954h2.931a.977.977,0,0,0,0-1.954Zm0,0" transform="translate(-56.185 -28.093)"/>
        <path id="Path_97" data-name="Path 97" class="cls-2" d="M119.815,32h-6.838a.977.977,0,0,0,0,1.954h6.838a.977.977,0,0,0,0-1.954Zm0,0" transform="translate(-98.324 -28.093)"/>
        <path id="Path_98" data-name="Path 98" class="cls-2" d="M293.861,97.954a.977.977,0,1,0,0-1.954,5.861,5.861,0,0,0,0,11.722.977.977,0,0,0,0-1.954,3.908,3.908,0,1,1,0-7.815Zm0,0" transform="translate(-252.833 -84.278)"/>
        <path id="Path_99" data-name="Path 99" class="cls-2" d="M325.861,320a5.861,5.861,0,1,0,5.861,5.861A5.861,5.861,0,0,0,325.861,320Zm0,9.769a3.908,3.908,0,1,1,3.908-3.908A3.908,3.908,0,0,1,325.861,329.769Zm0,0" transform="translate(-280.925 -280.925)"/>
      </g>
      <text id="website_updates_" data-name="website updates " class="cls-3" transform="translate(758 815)"><tspan x="0" y="0">website updates </tspan></text>
    </g>
  </g>
</svg>
