<svg xmlns="http://www.w3.org/2000/svg" width="212" height="214" viewBox="0 0 212 214">
  <defs>
    <style>
      .cls-1 {
        fill: #000429;
      }

      .cls-2 {
        fill: #d6cfff;
      }

      .cls-3 {
        fill: #fff;
        font-size: 16px;
        font-family: Montserrat-SemiBold, Montserrat;
        font-weight: 600;
      }
    </style>
  </defs>
  <g id="logo1" transform="translate(-312.5 -589)">
    <ellipse id="Ellipse_1" data-name="Ellipse 1" class="cls-1" cx="106" cy="107" rx="106" ry="107" transform="translate(312.5 589)"/>
    <g id="Group_12" data-name="Group 12" transform="translate(-76.5)">
      <g id="_01_Website_design" data-name="01 Website design" transform="translate(464 661)">
        <g id="Group_6" data-name="Group 6" transform="translate(40.437 39.373)">
          <g id="Group_5" data-name="Group 5">
            <path id="Path_3" data-name="Path 3" class="cls-2" d="M370.638,360.812a.822.822,0,0,0-.9.178l-8.984,8.984a.822.822,0,0,0,.581,1.4h8.984a.822.822,0,0,0,.822-.822v-8.984A.822.822,0,0,0,370.638,360.812Zm-7.314,8.922,6.177-6.177v6.177Z" transform="translate(-360.516 -360.748)"/>
          </g>
        </g>
        <g id="Group_8" data-name="Group 8" transform="translate(3 -12)">
          <g id="Group_7" data-name="Group 7">
            <path id="Path_4" data-name="Path 4" class="cls-2" d="M56.491,27.08a.848.848,0,0,0-.916.178l-2.5,2.462V12.979a.829.829,0,0,0-.837-.822H45.81l2.335-2.293h0l2.248-2.209a2.476,2.476,0,0,0,0-3.545l-2.6-2.556a2.584,2.584,0,0,0-3.608,0l-2.248,2.21-2.72,2.671-5.824,5.722H7.418V4.024a.815.815,0,0,0-.244-.583A.844.844,0,0,0,6.581,3.2,6.532,6.532,0,0,0,0,9.668V44.585a.81.81,0,0,0,.019.177,6.294,6.294,0,0,0,6.319,5.754H31.909l-4.815,4.731a.811.811,0,0,0-.178.893.837.837,0,0,0,.769.507H56.173a.829.829,0,0,0,.837-.822V27.839a.822.822,0,0,0-.519-.759ZM45.368,2.717a.89.89,0,0,1,1.242,0l2.6,2.555a.852.852,0,0,1,0,1.22L47.551,8.121,43.71,4.346ZM42.526,5.509l3.842,3.775-1.535,1.508L40.991,7.017ZM55.337,37.077H53.793a.822.822,0,1,0,0,1.644h1.544V41.2H53.793a.822.822,0,1,0,0,1.644h1.544V45.32H53.793a.822.822,0,1,0,0,1.644h1.544v2.477H53.793a.822.822,0,1,0,0,1.644h1.544v3.921H29.7l8.448-8.3a.812.812,0,0,0,0-1.163.848.848,0,0,0-1.184,0l-3.391,3.332H6.339A4.6,4.6,0,0,1,1.678,44.44q.007-.234.037-.464h0q.014-.109.034-.217v-.025q.017-.1.04-.192l.012-.053q.019-.081.041-.161c.008-.029.016-.057.025-.086l.039-.125c.013-.042.027-.082.043-.123s.02-.057.032-.085c.02-.054.042-.107.064-.16l.019-.046c.029-.066.058-.131.09-.195V42.5a4.913,4.913,0,0,1,3.424-2.631h.012c.069-.014.139-.026.21-.037l.036-.006c.063-.01.128-.017.192-.024l.054-.006c.062-.006.124-.01.187-.014h.059q.123-.006.247-.006a.829.829,0,0,0,.837-.822V32.98a.837.837,0,0,0-1.673,0v5.19a6.583,6.583,0,0,0-3.759,1.787c-.109.1-.212.213-.312.323V9.668A4.855,4.855,0,0,1,5.738,4.916V29.692h0a.837.837,0,0,0,1.673,0h0V13.8H31.718l-4.626,4.545a.812.812,0,0,0,0,1.163.848.848,0,0,0,1.184,0L34.33,13.56h0l5.477-5.381,3.841,3.775L43.2,12.4h0L26.325,28.974,22.483,25.2l3.325-3.267a.812.812,0,0,0,0-1.163.848.848,0,0,0-1.184,0l-3.918,3.849a.831.831,0,0,0-.059.065l-.017.023c-.012.015-.023.031-.035.047l-.017.029c-.009.015-.018.031-.026.047l-.015.031c-.007.016-.014.032-.02.049l-.007.017-1.629,4.537L17.77,32.558a.819.819,0,0,0-.034.125H14.953a.822.822,0,1,0,0,1.644H38.126a.822.822,0,1,0,0-1.644H21.5l5.1-1.77.012,0,.059-.024.022-.01c.02-.01.04-.021.059-.032l.018-.011c.02-.013.04-.027.059-.041l.014-.011a.836.836,0,0,0,.068-.059L44.135,13.8H51.4V31.364l-11.97,11.76a.812.812,0,0,0,0,1.163q.03.03.063.056a.848.848,0,0,0,1.12-.056h0L55.337,29.824ZM24.795,29.8l-2.4.827-1.6-1.569.846-2.355Z" transform="translate(0 -0.82)"/>
          </g>
        </g>
      </g>
      <text id="web_design_" data-name="web design " class="cls-3" transform="translate(447 739)"><tspan x="0" y="0">web design </tspan></text>
    </g>
  </g>
</svg>
